<svg xmlns="http://www.w3.org/2000/svg" viewBox="0 0 60 60" width="60" height="60">
  <g transform="translate(8 8) scale(1.15)">
    <!-- Orange outer circle — exact DuckDB Labs path -->
    <path fill="#ff6900" d="M19,38C8.5068283,38,0,29.4932251,0,19,0,8.5068283,8.4636555,0,19,0c10.536396,0,19,8.5068283,19,19,0,10.4932251-8.5068283,19-19,19Z"/>
    <!-- Dark inner face -->
    <path fill="#1d1d1b" d="M31.4154434,18.9999485c0-4.3613968-3.5408611-7.859087-7.8590851-7.859087-4.3181705,0-7.8590851,3.5409145-7.8590851,7.859087,0,4.318224,3.5409145,7.8591385,7.8590851,7.8591385,4.3182259,0,7.8590851-3.5409126,7.8590851-7.8591385Z"/>
    <!-- Duck bill -->
    <path fill="#1d1d1b" d="M9.4132853,21.8284149h3.7351904v-5.6569328h-3.7351894c-1.5620632,0-2.8284135,1.2663498-2.8284135,2.8284683s1.2663503,2.8284664,2.8284125,2.8284645Z"/>
  </g>
</svg>
